<svg width="32" height="32" viewBox="0 0 32 32" fill="none" xmlns="http://www.w3.org/2000/svg">
<path d="M19.3 16L9.5 6.2C9.16667 5.86667 9.00533 5.472 9.016 5.016C9.02667 4.56 9.19911 4.16578 9.53333 3.83333C9.86755 3.50089 10.2622 3.33422 10.7173 3.33333C11.1724 3.33244 11.5667 3.49911 11.9 3.83333L22.1333 14.1C22.4 14.3667 22.6 14.6667 22.7333 15C22.8667 15.3333 22.9333 15.6667 22.9333 16C22.9333 16.3333 22.8667 16.6667 22.7333 17C22.6 17.3333 22.4 17.6333 22.1333 17.9L11.8667 28.1667C11.5333 28.5 11.1444 28.6613 10.7 28.6507C10.2556 28.64 9.86667 28.4676 9.53333 28.1333C9.2 27.7991 9.03333 27.4044 9.03333 26.9493C9.03333 26.4942 9.2 26.1 9.53333 25.7667L19.3 16Z" fill="white"/>
</svg>
