<svg width="32" height="32" viewBox="0 0 32 32" fill="none" xmlns="http://www.w3.org/2000/svg">
<path d="M15.9667 19.3178L25.7667 9.51782C26.1 9.18449 26.4947 9.02315 26.9507 9.03382C27.4067 9.04449 27.8009 9.21693 28.1334 9.55115C28.4658 9.88538 28.6325 10.28 28.6334 10.7352C28.6342 11.1903 28.4676 11.5845 28.1334 11.9178L17.8667 22.1512C17.6 22.4178 17.3 22.6178 16.9667 22.7512C16.6334 22.8845 16.3 22.9512 15.9667 22.9512C15.6334 22.9512 15.3 22.8845 14.9667 22.7512C14.6334 22.6178 14.3334 22.4178 14.0667 22.1512L3.80003 11.8845C3.46669 11.5512 3.30536 11.1623 3.31602 10.7178C3.32669 10.2734 3.49914 9.88449 3.83336 9.55115C4.16758 9.21782 4.56225 9.05115 5.01736 9.05115C5.47247 9.05115 5.86669 9.21782 6.20002 9.55115L15.9667 19.3178Z" fill="white"/>
</svg>
